<mxfile host="app.diagrams.net" modified="2022-11-04T06:24:07.030Z" agent="5.0 (Macintosh; Intel Mac OS X 10_15_7) AppleWebKit/537.36 (KHTML, like Gecko) Chrome/107.0.0.0 Safari/537.36" etag="lzACUOHvnZS6Kv5Su5MP" version="20.5.1" type="github">
  <diagram id="O7jyK_cGJBeiItu3M3Zx" name="第 1 页">
    <mxGraphModel dx="1426" dy="794" grid="1" gridSize="10" guides="1" tooltips="1" connect="1" arrows="1" fold="1" page="1" pageScale="1" pageWidth="3300" pageHeight="4681" math="0" shadow="0">
      <root>
        <mxCell id="0" />
        <mxCell id="1" parent="0" />
        <mxCell id="ECRpxW6QUPekAp9dYrVB-13" style="edgeStyle=orthogonalEdgeStyle;rounded=0;orthogonalLoop=1;jettySize=auto;html=1;entryX=0;entryY=0.5;entryDx=0;entryDy=0;endArrow=none;endFill=0;" parent="1" source="ECRpxW6QUPekAp9dYrVB-1" target="ECRpxW6QUPekAp9dYrVB-4" edge="1">
          <mxGeometry relative="1" as="geometry" />
        </mxCell>
        <mxCell id="ECRpxW6QUPekAp9dYrVB-1" value="" style="rounded=0;whiteSpace=wrap;html=1;fillColor=#f8cecc;strokeColor=#b85450;strokeWidth=6;" parent="1" vertex="1">
          <mxGeometry x="460" y="270" width="190" height="140" as="geometry" />
        </mxCell>
        <mxCell id="ECRpxW6QUPekAp9dYrVB-2" value="&lt;span style=&quot;&quot;&gt;ID 选择器&lt;/span&gt;" style="text;html=1;align=center;verticalAlign=middle;resizable=0;points=[];autosize=1;strokeColor=none;fillColor=none;" parent="1" vertex="1">
          <mxGeometry x="520" y="270" width="70" height="30" as="geometry" />
        </mxCell>
        <mxCell id="ECRpxW6QUPekAp9dYrVB-14" style="edgeStyle=orthogonalEdgeStyle;rounded=0;orthogonalLoop=1;jettySize=auto;html=1;entryX=0;entryY=0.5;entryDx=0;entryDy=0;endArrow=none;endFill=0;" parent="1" source="ECRpxW6QUPekAp9dYrVB-4" target="ECRpxW6QUPekAp9dYrVB-5" edge="1">
          <mxGeometry relative="1" as="geometry" />
        </mxCell>
        <mxCell id="ECRpxW6QUPekAp9dYrVB-4" value="" style="rounded=0;whiteSpace=wrap;html=1;fillColor=#d5e8d4;strokeColor=#82b366;strokeWidth=4;" parent="1" vertex="1">
          <mxGeometry x="690" y="270" width="190" height="140" as="geometry" />
        </mxCell>
        <mxCell id="ECRpxW6QUPekAp9dYrVB-5" value="" style="rounded=0;whiteSpace=wrap;html=1;fillColor=#dae8fc;strokeColor=#6c8ebf;strokeWidth=2;" parent="1" vertex="1">
          <mxGeometry x="920" y="270" width="190" height="140" as="geometry" />
        </mxCell>
        <mxCell id="ECRpxW6QUPekAp9dYrVB-7" value="类型选择器、伪类元素" style="text;html=1;align=center;verticalAlign=middle;resizable=0;points=[];autosize=1;strokeColor=none;fillColor=none;" parent="1" vertex="1">
          <mxGeometry x="945" y="270" width="140" height="30" as="geometry" />
        </mxCell>
        <mxCell id="ECRpxW6QUPekAp9dYrVB-8" value="&lt;font style=&quot;font-size: 14px;&quot;&gt;&lt;font style=&quot;font-size: 14px;&quot; color=&quot;#0000ff&quot;&gt;A 列&lt;/font&gt;，权重&lt;font style=&quot;font-size: 14px;&quot; color=&quot;#ff0000&quot;&gt;高&lt;/font&gt;&lt;/font&gt;" style="text;html=1;align=center;verticalAlign=middle;resizable=0;points=[];autosize=1;strokeColor=none;fillColor=none;" parent="1" vertex="1">
          <mxGeometry x="500" y="240" width="110" height="30" as="geometry" />
        </mxCell>
        <mxCell id="ECRpxW6QUPekAp9dYrVB-9" value="&lt;font style=&quot;font-size: 14px;&quot;&gt;&lt;font style=&quot;font-size: 14px;&quot; color=&quot;#0000ff&quot;&gt;B列&lt;/font&gt;，权重&lt;font style=&quot;font-size: 14px;&quot; color=&quot;#ff0818&quot;&gt;中&lt;/font&gt;&lt;/font&gt;" style="text;html=1;align=center;verticalAlign=middle;resizable=0;points=[];autosize=1;strokeColor=none;fillColor=none;" parent="1" vertex="1">
          <mxGeometry x="735" y="240" width="100" height="30" as="geometry" />
        </mxCell>
        <mxCell id="ECRpxW6QUPekAp9dYrVB-10" value="&lt;font style=&quot;font-size: 14px;&quot;&gt;&lt;font style=&quot;font-size: 14px;&quot; color=&quot;#0000ff&quot;&gt;C列&lt;/font&gt;，权重&lt;font style=&quot;font-size: 14px;&quot; color=&quot;#ff0000&quot;&gt;低&lt;/font&gt;&lt;/font&gt;" style="text;html=1;align=center;verticalAlign=middle;resizable=0;points=[];autosize=1;strokeColor=none;fillColor=none;" parent="1" vertex="1">
          <mxGeometry x="965" y="240" width="100" height="30" as="geometry" />
        </mxCell>
        <mxCell id="ECRpxW6QUPekAp9dYrVB-12" value="类选择器、属性选择器、伪类" style="text;html=1;align=center;verticalAlign=middle;resizable=0;points=[];autosize=1;strokeColor=none;fillColor=none;" parent="1" vertex="1">
          <mxGeometry x="695" y="270" width="180" height="30" as="geometry" />
        </mxCell>
        <mxCell id="ECRpxW6QUPekAp9dYrVB-18" value="" style="rounded=1;whiteSpace=wrap;html=1;strokeWidth=1;fontSize=14;strokeColor=#d79b00;fillColor=#ffe6cc;" parent="1" vertex="1">
          <mxGeometry x="690" y="445" width="220" height="105" as="geometry" />
        </mxCell>
        <mxCell id="ECRpxW6QUPekAp9dYrVB-19" value=":is()&lt;font color=&quot;#000000&quot;&gt;，&lt;/font&gt;:not()&lt;font color=&quot;#000000&quot;&gt;，&lt;/font&gt;:has()" style="text;html=1;align=center;verticalAlign=middle;resizable=0;points=[];autosize=1;strokeColor=none;fillColor=none;fontSize=14;fontColor=#FF0818;" parent="1" vertex="1">
          <mxGeometry x="730" y="445" width="140" height="30" as="geometry" />
        </mxCell>
        <mxCell id="exm0bVOSVGiGTwGDYVTc-6" style="edgeStyle=orthogonalEdgeStyle;rounded=1;orthogonalLoop=1;jettySize=auto;html=1;entryX=0.491;entryY=0.033;entryDx=0;entryDy=0;entryPerimeter=0;fontSize=12;fontColor=#000000;endArrow=none;endFill=0;startArrow=classic;startFill=1;" edge="1" parent="1" source="ECRpxW6QUPekAp9dYrVB-20" target="exm0bVOSVGiGTwGDYVTc-4">
          <mxGeometry relative="1" as="geometry" />
        </mxCell>
        <mxCell id="ECRpxW6QUPekAp9dYrVB-20" value="选择&lt;font color=&quot;#ff0000&quot;&gt;选择器列&lt;/font&gt;里面权重值最大的" style="text;html=1;align=center;verticalAlign=middle;resizable=0;points=[];autosize=1;strokeColor=none;fillColor=none;fontSize=14;fontColor=#000000;" parent="1" vertex="1">
          <mxGeometry x="690" y="475" width="220" height="30" as="geometry" />
        </mxCell>
        <mxCell id="ECRpxW6QUPekAp9dYrVB-22" value="&lt;font style=&quot;font-size: 12px;&quot;&gt;&lt;span style=&quot;color: rgb(3, 69, 117); font-family: sans-serif; text-align: left; background-color: rgb(252, 250, 238);&quot;&gt;:is(em, #foo)&amp;nbsp; &amp;nbsp; &amp;nbsp; &lt;/span&gt;&lt;span style=&quot;font-family: sans-serif; text-align: left; background-color: rgb(252, 250, 238);&quot;&gt;&lt;font style=&quot;font-size: 12px;&quot; color=&quot;#000000&quot;&gt;（1,0,0）&lt;/font&gt;&lt;/span&gt;&lt;/font&gt;" style="text;html=1;align=center;verticalAlign=middle;resizable=0;points=[];autosize=1;strokeColor=none;fillColor=none;fontSize=14;fontColor=#FF0000;" parent="1" vertex="1">
          <mxGeometry x="715" y="505" width="170" height="30" as="geometry" />
        </mxCell>
        <mxCell id="exm0bVOSVGiGTwGDYVTc-7" style="edgeStyle=orthogonalEdgeStyle;rounded=1;orthogonalLoop=1;jettySize=auto;html=1;exitX=1;exitY=0.5;exitDx=0;exitDy=0;fontSize=12;fontColor=#000000;endArrow=none;endFill=0;startArrow=classic;startFill=1;" edge="1" parent="1" source="ECRpxW6QUPekAp9dYrVB-23" target="exm0bVOSVGiGTwGDYVTc-4">
          <mxGeometry relative="1" as="geometry" />
        </mxCell>
        <mxCell id="ECRpxW6QUPekAp9dYrVB-23" value="" style="rounded=1;whiteSpace=wrap;html=1;strokeWidth=1;fontSize=14;strokeColor=#d79b00;fillColor=#ffe6cc;" parent="1" vertex="1">
          <mxGeometry x="690" y="580" width="280" height="145" as="geometry" />
        </mxCell>
        <mxCell id="ECRpxW6QUPekAp9dYrVB-24" value="A-B-C" style="text;html=1;align=center;verticalAlign=middle;resizable=0;points=[];autosize=1;strokeColor=none;fillColor=none;fontSize=14;fontColor=#FF0000;" parent="1" vertex="1">
          <mxGeometry x="755" y="160" width="60" height="30" as="geometry" />
        </mxCell>
        <mxCell id="ECRpxW6QUPekAp9dYrVB-25" value="&lt;font color=&quot;#666666&quot;&gt;选择器列 eg: a, .name, #foo{&amp;nbsp; }&lt;/font&gt;" style="text;html=1;align=center;verticalAlign=middle;resizable=0;points=[];autosize=1;strokeColor=none;fillColor=none;fontSize=14;fontColor=#FF0000;" parent="1" vertex="1">
          <mxGeometry x="460" y="650" width="210" height="30" as="geometry" />
        </mxCell>
        <mxCell id="ECRpxW6QUPekAp9dYrVB-26" value="&lt;font color=&quot;#ff0818&quot;&gt;:nth-child()&lt;/font&gt;，&lt;font color=&quot;#ff0818&quot;&gt;:nth-last-child()&lt;/font&gt;" style="text;html=1;align=center;verticalAlign=middle;resizable=0;points=[];autosize=1;strokeColor=none;fillColor=none;fontSize=14;fontColor=#666666;" parent="1" vertex="1">
          <mxGeometry x="730" y="585" width="200" height="30" as="geometry" />
        </mxCell>
        <mxCell id="ECRpxW6QUPekAp9dYrVB-27" value="&lt;font color=&quot;#666666&quot;&gt;类似这些伪类选择器&lt;/font&gt;" style="text;html=1;align=center;verticalAlign=middle;resizable=0;points=[];autosize=1;strokeColor=none;fillColor=none;fontSize=14;fontColor=#FF0818;" parent="1" vertex="1">
          <mxGeometry x="755" y="695" width="150" height="30" as="geometry" />
        </mxCell>
        <mxCell id="ECRpxW6QUPekAp9dYrVB-28" value="自身权重值+选择&lt;font color=&quot;#ff0000&quot;&gt;选择器列&lt;/font&gt;里面&lt;br&gt;权重值最大的" style="text;html=1;align=center;verticalAlign=middle;resizable=0;points=[];autosize=1;strokeColor=none;fillColor=none;fontSize=14;fontColor=#000000;" parent="1" vertex="1">
          <mxGeometry x="725" y="615" width="210" height="50" as="geometry" />
        </mxCell>
        <mxCell id="ECRpxW6QUPekAp9dYrVB-29" value="&lt;font style=&quot;font-size: 12px;&quot;&gt;&lt;span style=&quot;color: rgb(3, 69, 117); font-family: sans-serif; text-align: left; background-color: rgb(252, 250, 238);&quot;&gt;:nth-child(even of li, .item)&amp;nbsp; &amp;nbsp;&lt;/span&gt;&lt;span style=&quot;color: rgb(0, 0, 0); font-family: sans-serif; text-align: left; background-color: rgb(252, 250, 238);&quot;&gt;(0,2,0)&lt;/span&gt;&lt;/font&gt;" style="text;html=1;align=center;verticalAlign=middle;resizable=0;points=[];autosize=1;strokeColor=none;fillColor=none;fontSize=14;fontColor=#666666;" parent="1" vertex="1">
          <mxGeometry x="710" y="660" width="220" height="30" as="geometry" />
        </mxCell>
        <mxCell id="ECRpxW6QUPekAp9dYrVB-30" value="一个类型选择器计为&lt;font color=&quot;#ff0818&quot;&gt;1&lt;/font&gt;，累加后放到对应位置即可" style="text;html=1;align=center;verticalAlign=middle;resizable=0;points=[];autosize=1;strokeColor=none;fillColor=none;fontSize=14;fontColor=#000000;" parent="1" vertex="1">
          <mxGeometry x="620" y="190" width="330" height="30" as="geometry" />
        </mxCell>
        <mxCell id="ECRpxW6QUPekAp9dYrVB-32" value="&lt;font style=&quot;font-size: 12px;&quot;&gt;&lt;span style=&quot;color: rgb(3, 69, 117); font-family: sans-serif; text-align: left; background-color: rgb(252, 250, 238);&quot;&gt;#bin&amp;nbsp; &amp;nbsp; &amp;nbsp;&amp;nbsp;&lt;/span&gt;&lt;span style=&quot;font-family: sans-serif; text-align: left; background-color: rgb(252, 250, 238);&quot;&gt;&lt;font style=&quot;font-size: 12px;&quot; color=&quot;#000000&quot;&gt;（1,0,0）&lt;/font&gt;&lt;/span&gt;&lt;/font&gt;" style="text;html=1;align=center;verticalAlign=middle;resizable=0;points=[];autosize=1;strokeColor=none;fillColor=none;fontSize=14;fontColor=#FF0000;" parent="1" vertex="1">
          <mxGeometry x="495" y="325" width="120" height="30" as="geometry" />
        </mxCell>
        <mxCell id="ECRpxW6QUPekAp9dYrVB-38" value="" style="group" parent="1" vertex="1" connectable="0">
          <mxGeometry x="700" y="300" width="210" height="88.18181818181819" as="geometry" />
        </mxCell>
        <mxCell id="ECRpxW6QUPekAp9dYrVB-33" value="&lt;font style=&quot;font-size: 13px;&quot;&gt;&lt;span style=&quot;color: rgb(3, 69, 117); font-family: sans-serif; background-color: rgb(252, 250, 238);&quot;&gt;.bin&amp;nbsp; &amp;nbsp; &amp;nbsp;&amp;nbsp;&lt;/span&gt;&lt;span style=&quot;font-family: sans-serif; background-color: rgb(252, 250, 238);&quot;&gt;&lt;font style=&quot;font-size: 13px;&quot; color=&quot;#000000&quot;&gt;（0,1,0）&lt;/font&gt;&lt;/span&gt;&lt;/font&gt;" style="text;html=1;align=left;verticalAlign=middle;resizable=0;points=[];autosize=1;strokeColor=none;fillColor=none;fontSize=14;fontColor=#FF0000;" parent="ECRpxW6QUPekAp9dYrVB-38" vertex="1">
          <mxGeometry width="120" height="30" as="geometry" />
        </mxCell>
        <mxCell id="ECRpxW6QUPekAp9dYrVB-34" value="&lt;font style=&quot;font-size: 12px;&quot;&gt;&lt;span style=&quot;color: rgb(3, 69, 117); font-family: sans-serif; background-color: rgb(252, 250, 238);&quot;&gt;[type=&quot;radio&quot;]&amp;nbsp;&lt;/span&gt;&lt;span style=&quot;font-family: sans-serif; background-color: rgb(252, 250, 238);&quot;&gt;&lt;font style=&quot;font-size: 12px;&quot; color=&quot;#000000&quot;&gt;（0,1,0）&lt;/font&gt;&lt;/span&gt;&lt;/font&gt;" style="text;html=1;align=left;verticalAlign=middle;resizable=0;points=[];autosize=1;strokeColor=none;fillColor=none;fontSize=14;fontColor=#FF0000;" parent="ECRpxW6QUPekAp9dYrVB-38" vertex="1">
          <mxGeometry y="29.09090909090909" width="150" height="30" as="geometry" />
        </mxCell>
        <mxCell id="ECRpxW6QUPekAp9dYrVB-35" value="&lt;div style=&quot;&quot;&gt;&lt;font style=&quot;font-size: 12px;&quot; face=&quot;sans-serif&quot;&gt;&lt;span style=&quot;background-color: rgb(252, 250, 238);&quot;&gt;&lt;font style=&quot;font-size: 12px;&quot; color=&quot;#034575&quot;&gt;:hover&amp;nbsp;&lt;/font&gt;&lt;font style=&quot;font-size: 12px;&quot; color=&quot;#000000&quot;&gt; &amp;nbsp;(0,1,0)&lt;/font&gt;&lt;/span&gt;&lt;/font&gt;&lt;/div&gt;" style="text;html=1;align=left;verticalAlign=middle;resizable=0;points=[];autosize=1;strokeColor=none;fillColor=none;fontSize=14;fontColor=#FF0000;" parent="ECRpxW6QUPekAp9dYrVB-38" vertex="1">
          <mxGeometry y="58.18181818181818" width="100" height="30" as="geometry" />
        </mxCell>
        <mxCell id="ECRpxW6QUPekAp9dYrVB-41" value="" style="group" parent="1" vertex="1" connectable="0">
          <mxGeometry x="930" y="310" width="140" height="60" as="geometry" />
        </mxCell>
        <mxCell id="ECRpxW6QUPekAp9dYrVB-39" value="&lt;font style=&quot;font-size: 12px;&quot;&gt;&lt;span style=&quot;color: rgb(3, 69, 117); font-family: sans-serif; background-color: rgb(252, 250, 238);&quot;&gt;div&amp;nbsp; &amp;nbsp; &amp;nbsp;&amp;nbsp;&lt;/span&gt;&lt;span style=&quot;font-family: sans-serif; background-color: rgb(252, 250, 238);&quot;&gt;&lt;font style=&quot;font-size: 12px;&quot; color=&quot;#000000&quot;&gt;（0,0,1）&lt;/font&gt;&lt;/span&gt;&lt;/font&gt;" style="text;html=1;align=left;verticalAlign=middle;resizable=0;points=[];autosize=1;strokeColor=none;fillColor=none;fontSize=14;fontColor=#FF0000;" parent="ECRpxW6QUPekAp9dYrVB-41" vertex="1">
          <mxGeometry width="110" height="30" as="geometry" />
        </mxCell>
        <mxCell id="ECRpxW6QUPekAp9dYrVB-40" value="&lt;font style=&quot;font-size: 12px;&quot;&gt;&lt;span style=&quot;color: rgb(3, 69, 117); font-family: sans-serif; background-color: rgb(252, 250, 238);&quot;&gt;::before&amp;nbsp; &amp;nbsp; &amp;nbsp;&amp;nbsp;&lt;/span&gt;&lt;span style=&quot;font-family: sans-serif; background-color: rgb(252, 250, 238);&quot;&gt;&lt;font style=&quot;font-size: 12px;&quot; color=&quot;#000000&quot;&gt;（0,0,1）&lt;/font&gt;&lt;/span&gt;&lt;/font&gt;" style="text;html=1;align=left;verticalAlign=middle;resizable=0;points=[];autosize=1;strokeColor=none;fillColor=none;fontSize=14;fontColor=#FF0000;" parent="ECRpxW6QUPekAp9dYrVB-41" vertex="1">
          <mxGeometry y="30" width="140" height="30" as="geometry" />
        </mxCell>
        <mxCell id="exm0bVOSVGiGTwGDYVTc-4" value="两类特殊选择器" style="text;html=1;align=center;verticalAlign=middle;resizable=0;points=[];autosize=1;strokeColor=none;fillColor=none;fontSize=12;fontColor=#000000;" vertex="1" parent="1">
          <mxGeometry x="990" y="520" width="110" height="30" as="geometry" />
        </mxCell>
        <mxCell id="exm0bVOSVGiGTwGDYVTc-8" value="" style="group" vertex="1" connectable="0" parent="1">
          <mxGeometry x="460" y="430" width="200" height="110" as="geometry" />
        </mxCell>
        <mxCell id="ECRpxW6QUPekAp9dYrVB-15" value="" style="rounded=1;whiteSpace=wrap;html=1;strokeWidth=1;fontSize=14;fontColor=#333333;dashed=1;fillColor=#f5f5f5;strokeColor=#666666;" parent="exm0bVOSVGiGTwGDYVTc-8" vertex="1">
          <mxGeometry y="30" width="200" height="80" as="geometry" />
        </mxCell>
        <mxCell id="ECRpxW6QUPekAp9dYrVB-16" value="&lt;font color=&quot;#000000&quot;&gt;权重&lt;/font&gt;&lt;font color=&quot;#ff0818&quot;&gt;无&lt;/font&gt;" style="text;html=1;align=center;verticalAlign=middle;resizable=0;points=[];autosize=1;strokeColor=none;fillColor=none;fontSize=14;fontColor=#0000FF;" parent="exm0bVOSVGiGTwGDYVTc-8" vertex="1">
          <mxGeometry x="70" width="70" height="30" as="geometry" />
        </mxCell>
        <mxCell id="ECRpxW6QUPekAp9dYrVB-17" value="通配符&amp;nbsp; &amp;nbsp; &amp;nbsp; &amp;nbsp; &amp;nbsp;&lt;font color=&quot;#ff0818&quot;&gt;*&lt;/font&gt;&lt;br style=&quot;font-size: 14px;&quot;&gt;伪类&amp;nbsp; &amp;nbsp; &amp;nbsp; &amp;nbsp; &amp;nbsp; &amp;nbsp; &amp;nbsp;&lt;font color=&quot;#ff0818&quot;&gt;:where()&lt;/font&gt;&lt;br&gt;组合选择器&amp;nbsp; &lt;font color=&quot;#ff0818&quot;&gt;+&lt;/font&gt;，&lt;font color=&quot;#ff0000&quot;&gt;~&lt;/font&gt;, &lt;font color=&quot;#ff0818&quot;&gt;&amp;gt;&lt;/font&gt; ,&lt;font color=&quot;#ff0818&quot;&gt;&quot; &quot;&lt;/font&gt;" style="text;html=1;align=left;verticalAlign=middle;resizable=0;points=[];autosize=1;strokeColor=none;fillColor=none;fontSize=14;fontColor=#000000;spacingTop=0;" parent="exm0bVOSVGiGTwGDYVTc-8" vertex="1">
          <mxGeometry x="30" y="40" width="170" height="60" as="geometry" />
        </mxCell>
      </root>
    </mxGraphModel>
  </diagram>
</mxfile>
